<?xml version="1.0" standalone="no"?><svg xmlns="http://www.w3.org/2000/svg" viewBox="0 0 1440 320"><path fill="#fbdcd9" fill-opacity="1" d="M0,192L20,186.7C40,181,80,171,120,165.3C160,160,200,160,240,144C280,128,320,96,360,101.3C400,107,440,149,480,149.3C520,149,560,107,600,85.3C640,64,680,64,720,85.3C760,107,800,149,840,165.3C880,181,920,171,960,138.7C1000,107,1040,53,1080,53.3C1120,53,1160,107,1200,160C1240,213,1280,267,1320,245.3C1360,224,1400,128,1420,80L1440,32L1440,320L1420,320C1400,320,1360,320,1320,320C1280,320,1240,320,1200,320C1160,320,1120,320,1080,320C1040,320,1000,320,960,320C920,320,880,320,840,320C800,320,760,320,720,320C680,320,640,320,600,320C560,320,520,320,480,320C440,320,400,320,360,320C320,320,280,320,240,320C200,320,160,320,120,320C80,320,40,320,20,320L0,320Z"></path></svg>